# xmcd CD database file
#
# Track frame offsets:
#	151
#	16519
#	49613
#	72543
#	102668
#	145740
#	190821
#
# Disc length: 3135 seconds
#
# Revision: 0
# Processed by: cddbd v1.5.1PL0 Copyright (c) Steve Scherf et al.
# Submitted via: CDex 1.50
#
DISCID=5b0c3d07
DTITLE=Eric Clapton - Eric Clapton - Change The World Tour '97 Osaka Night. Oct. 22.1997 (Disk2)
DYEAR=1900
DGENRE=Blues
TTITLE0=I'm Tore Down
TTITLE1=Have You Ever Loved A Woman
TTITLE2=Cocaine
TTITLE3=Tearing Us Apart
TTITLE4=Old Love
TTITLE5=Sunshine Of Your Love
TTITLE6=Everyday I Have The Blues
EXTD=
EXTT0=
EXTT1=
EXTT2=
EXTT3=
EXTT4=
EXTT5=
EXTT6=
PLAYORDER=
